<svg xmlns="http://www.w3.org/2000/svg" xmlns:xlink="http://www.w3.org/1999/xlink" viewBox="0 0 1447.2 472.32"><defs><style>.cls-1{fill:none;}.cls-2{clip-path:url(#clip-path);}.cls-3{fill:url(#Gradiente_sem_nome_10);}.cls-4{clip-path:url(#clip-path-2);}.cls-5{fill:url(#Gradiente_sem_nome_10-2);}.cls-6{clip-path:url(#clip-path-3);}.cls-7{fill:url(#Gradiente_sem_nome_10-3);}.cls-8{clip-path:url(#clip-path-4);}.cls-9{fill:url(#Gradiente_sem_nome_10-4);}.cls-10{clip-path:url(#clip-path-5);}.cls-11{fill:url(#Gradiente_sem_nome_10-5);}.cls-12{clip-path:url(#clip-path-6);}.cls-13{fill:url(#Gradiente_sem_nome_10-6);}.cls-14{clip-path:url(#clip-path-7);}.cls-15{fill:url(#Gradiente_sem_nome_10-7);}.cls-16{clip-path:url(#clip-path-8);}.cls-17{fill:url(#Gradiente_sem_nome_10-8);}.cls-18{clip-path:url(#clip-path-9);}.cls-19{fill:url(#Gradiente_sem_nome_2);}.cls-20{clip-path:url(#clip-path-10);}.cls-21{fill:url(#Gradiente_sem_nome_2-2);}</style><clipPath id="clip-path"><path class="cls-1" d="M129.75,217.91c.21-29.84-32.06-19.28-30.85,11.6a68.73,68.73,0,0,0,1.18,10.31,18.82,18.82,0,1,0,8.68,21.76c11.76,18,33.26,28.56,60.46,26.41,0,0-39.88-10.38-39.47-70.08"/></clipPath><linearGradient id="Gradiente_sem_nome_10" x1="70.48" y1="245.2" x2="162.62" y2="233.95" gradientUnits="userSpaceOnUse"><stop offset="0" stop-color="#191a45"/><stop offset="1" stop-color="#00a5cb"/></linearGradient><clipPath id="clip-path-2"><path class="cls-1" d="M157.38,218.2s-18.35-36.91,27-75.8c22.64-19.42-6.51-36.82-29-15.64a69.53,69.53,0,0,0-7,7.66,18.81,18.81,0,1,0-10.72,20.83c-5.84,20.69.3,43.84,19.78,62.95"/></clipPath><linearGradient id="Gradiente_sem_nome_10-2" x1="130.48" y1="177.69" x2="199.44" y2="137.87" xlink:href="#Gradiente_sem_nome_10"/><clipPath id="clip-path-3"><path class="cls-1" d="M274,395.8a18.82,18.82,0,0,0-10.3-20.53c19.61-8.81,33.39-28.39,35.52-55.59,0,0-16.48,37.77-75.39,28.05-29.43-4.86-24,28.66,6.65,32.28a70,70,0,0,0,10.37.44A18.81,18.81,0,1,0,274,395.8"/></clipPath><linearGradient id="Gradiente_sem_nome_10-3" x1="227.34" y1="337.25" x2="272.15" y2="403.71" xlink:href="#Gradiente_sem_nome_10"/><clipPath id="clip-path-4"><path class="cls-1" d="M223.84,314.43S190.75,339,144.48,301.27c-23.11-18.86-35.1,12.9-10.29,31.31a69.5,69.5,0,0,0,8.78,5.54,18.82,18.82,0,1,0,22.4,6.88c21.39,2.1,43.09-8,58.47-30.57"/></clipPath><linearGradient id="Gradiente_sem_nome_10-4" x1="117.71" y1="317.48" x2="217.06" y2="341.96" xlink:href="#Gradiente_sem_nome_10"/><clipPath id="clip-path-5"><path class="cls-1" d="M363.88,254.87c-.21,29.83,32.05,19.27,30.84-11.61A70.38,70.38,0,0,0,393.55,233a18.81,18.81,0,1,0-8.68-21.76c-11.77-18-33.27-28.55-60.47-26.41,0,0,39.89,10.39,39.48,70.09"/></clipPath><linearGradient id="Gradiente_sem_nome_10-5" x1="423.14" y1="227.57" x2="331" y2="238.82" xlink:href="#Gradiente_sem_nome_10"/><clipPath id="clip-path-6"><path class="cls-1" d="M342.35,260.69s18.36,36.9-27,75.79c-22.63,19.43,6.51,36.83,29,15.65a69.44,69.44,0,0,0,7-7.66,18.82,18.82,0,1,0,10.72-20.83c5.85-20.69-.3-43.84-19.78-62.95"/></clipPath><linearGradient id="Gradiente_sem_nome_10-6" x1="369.26" y1="301.2" x2="300.29" y2="341.02" xlink:href="#Gradiente_sem_nome_10"/><clipPath id="clip-path-7"><path class="cls-1" d="M218.3,79.44a18.81,18.81,0,0,0,13.38,18.67c-18,11.76-28.56,33.25-26.42,60.45,0,0,10.39-39.88,70.1-39.46,29.83.21,19.27-32-11.6-30.85a70.2,70.2,0,0,0-10.32,1.18,18.81,18.81,0,1,0-35.14-10"/></clipPath><linearGradient id="Gradiente_sem_nome_10-7" x1="273.26" y1="130.27" x2="218.64" y2="71.6" xlink:href="#Gradiente_sem_nome_10"/><clipPath id="clip-path-8"><path class="cls-1" d="M274.53,152.45s34.8-22.07,78.17,19c21.67,20.51,36-10.29,12.56-30.47a69.19,69.19,0,0,0-8.34-6.17,18.82,18.82,0,1,0-21.83-8.51c-21.18-3.67-43.57,4.84-60.56,26.19"/></clipPath><linearGradient id="Gradiente_sem_nome_10-8" x1="379.77" y1="159.74" x2="282.49" y2="128.03" xlink:href="#Gradiente_sem_nome_10"/><clipPath id="clip-path-9"><path class="cls-1" d="M1310.12,346.22a20.58,20.58,0,0,1-10.53,2.64c-10.83,0-18.51-7.61-18.51-18,0-10.6,7.68-18,18.58-18a19,19,0,0,1,14.12,5.85l6-5.85c-4.83-5.48-12-8.34-20.56-8.34-16,0-27.72,11.05-27.72,26.33s11.71,26.34,27.58,26.34c7.24,0,14.7-2.2,20-6.51V330.28h-9Zm-100.7-41v34.67l-28.24-34.67h-7.82v51.2h9.43V321.79L1211,356.46h7.82v-51.2Zm-102,51.2H1117v-51.2h-9.51Zm-60.18,0h11.12l-22.82-28.3,21.5-22.9h-10.68l-25.31,26.26V305.26h-9.5v51.2h9.5V343.37l8.12-8.34Zm-98.44-33c0,6.43-4.31,10.24-12.65,10.24H925.08V313.31H936.2C944.54,313.31,948.85,317,948.85,323.48Zm10.46,33-11.77-16.82c6.94-2.7,10.89-8.41,10.89-16.16,0-11.34-8.33-18.22-21.79-18.22H915.57v51.2h9.51V341.54h11.56a18.44,18.44,0,0,0,2-.07l10.46,15Zm-124-7.6c-10.31,0-18-7.54-18-18s7.68-18,18-18,18,7.53,18,18S845.66,348.86,835.35,348.86Zm0,8.34c15.87,0,27.57-11.12,27.57-26.34s-11.7-26.33-27.57-26.33-27.58,11.19-27.58,26.33S819.48,357.2,835.35,357.2Zm-82.78-51.94-13.1,39.14-12.94-39.14h-8.78l-13.24,38.92-12.73-38.92h-9.87l17,51.2h10.17l12.87-37.88,12.65,37.88h10.1l17-51.2ZM608.2,348.86c-10.32,0-18-7.54-18-18s7.68-18,18-18,18,7.53,18,18S618.51,348.86,608.2,348.86Zm0,8.34c15.87,0,27.57-11.12,27.57-26.34s-11.7-26.33-27.57-26.33-27.58,11.19-27.58,26.33S592.32,357.2,608.2,357.2Zm-94.86,0c8.41,0,15.58-3,20.34-8.56l-6.15-5.85a17.8,17.8,0,0,1-13.67,6.07c-10.61,0-18.29-7.46-18.29-18s7.68-18,18.29-18a18,18,0,0,1,13.67,6l6.15-5.78c-4.76-5.56-11.93-8.56-20.26-8.56-15.73,0-27.43,11.05-27.43,26.33S497.69,357.2,513.34,357.2Z"/></clipPath><linearGradient id="Gradiente_sem_nome_2" x1="485.99" y1="330.86" x2="1319.78" y2="330.86" gradientUnits="userSpaceOnUse"><stop offset="0" stop-color="#1b204c"/><stop offset="1" stop-color="#009cc3"/></linearGradient><clipPath id="clip-path-10"><path class="cls-1" d="M999.49,189.17l15.94-39.68,15.94,39.68Zm51.9,50h36.49l-54.91-124H998.42l-54.73,124h35.78L989.21,215h52.44Zm-158.56-124V181.2l-54.74-66.08H809.22v124h34.36V173.05l54.74,66.07h28.87v-124Zm-188.5,74,15.94-39.68,15.94,39.68Zm51.9,50h36.49l-54.91-124H703.26l-54.73,124h35.78L694.05,215h52.44Zm-124.2,0-.35-124H602.8l-42.51,71.57-43.58-71.57H487.84v124h32.42v-64L552,226.9h15.59l31.89-53.5.35,65.72Z"/></clipPath><linearGradient id="Gradiente_sem_nome_2-2" x1="487.84" y1="177.12" x2="1087.88" y2="177.12" xlink:href="#Gradiente_sem_nome_2"/></defs><g id="Camada_2" data-name="Camada 2"><g class="cls-2"><rect class="cls-3" x="71.59" y="188.07" width="97.63" height="102.07"/></g><g class="cls-4"><rect class="cls-5" x="108.72" y="105.58" width="98.24" height="112.62"/></g><g class="cls-6"><rect class="cls-7" x="194.43" y="319.68" width="104.82" height="92.98"/></g><g class="cls-8"><rect class="cls-9" x="109.38" y="282.41" width="114.46" height="94.23"/></g><g class="cls-10"><rect class="cls-11" x="324.4" y="182.64" width="97.63" height="102.07"/></g><g class="cls-12"><rect class="cls-13" x="292.77" y="260.69" width="98.24" height="112.62"/></g><g class="cls-14"><rect class="cls-15" x="203.12" y="60.94" width="102.07" height="97.62"/></g><g class="cls-16"><rect class="cls-17" x="274.53" y="96.15" width="114.13" height="95.76"/></g><g class="cls-18"><rect class="cls-19" x="485.99" y="304.53" width="833.79" height="52.66"/></g><g class="cls-20"><rect class="cls-21" x="487.84" y="115.12" width="600.04" height="124"/></g></g></svg>