<svg xmlns="http://www.w3.org/2000/svg" xmlns:xlink="http://www.w3.org/1999/xlink" viewBox="0 0 200 56.05"><defs><style>.cls-1{fill:none;}.cls-2{clip-path:url(#clip-path);}.cls-3{fill:url(#Gradiente_sem_nome_10);}.cls-4{clip-path:url(#clip-path-2);}.cls-5{fill:url(#Gradiente_sem_nome_10-2);}.cls-6{clip-path:url(#clip-path-3);}.cls-7{fill:url(#Gradiente_sem_nome_10-3);}.cls-8{clip-path:url(#clip-path-4);}.cls-9{fill:url(#Gradiente_sem_nome_10-4);}.cls-10{clip-path:url(#clip-path-5);}.cls-11{fill:url(#Gradiente_sem_nome_10-5);}.cls-12{clip-path:url(#clip-path-6);}.cls-13{fill:url(#Gradiente_sem_nome_10-6);}.cls-14{clip-path:url(#clip-path-7);}.cls-15{fill:url(#Gradiente_sem_nome_10-7);}.cls-16{clip-path:url(#clip-path-8);}.cls-17{fill:url(#Gradiente_sem_nome_10-8);}.cls-18{clip-path:url(#clip-path-9);}.cls-19{fill:url(#Gradiente_sem_nome_2);}.cls-20{clip-path:url(#clip-path-10);}.cls-21{fill:url(#Gradiente_sem_nome_2-2);}</style><clipPath id="clip-path"><path class="cls-1" d="M9.26,25.1C9.3,20.32,4.12,22,4.32,27a11,11,0,0,0,.19,1.65,3.07,3.07,0,0,0-1.39-.39A3,3,0,1,0,5.9,32.1c1.88,2.88,5.33,4.58,9.69,4.23,0,0-6.39-1.66-6.33-11.23"/></clipPath><linearGradient id="Gradiente_sem_nome_10" x1="-0.24" y1="29.48" x2="14.53" y2="27.67" gradientUnits="userSpaceOnUse"><stop offset="0" stop-color="#191a45"/><stop offset="1" stop-color="#00a5cb"/></linearGradient><clipPath id="clip-path-2"><path class="cls-1" d="M13.69,25.15S10.75,19.23,18,13c3.63-3.12-1-5.9-4.65-2.51a10.73,10.73,0,0,0-1.12,1.23,2.93,2.93,0,0,0-.61-1.3,3,3,0,1,0-1.11,4.64c-.94,3.31.05,7,3.17,10.09"/></clipPath><linearGradient id="Gradiente_sem_nome_10-2" x1="9.38" y1="18.65" x2="20.43" y2="12.27" xlink:href="#Gradiente_sem_nome_10"/><clipPath id="clip-path-3"><path class="cls-1" d="M32.39,53.61a3,3,0,0,0-1.65-3.29c3.14-1.41,5.35-4.55,5.69-8.91,0,0-2.64,6.06-12.08,4.5-4.72-.78-3.85,4.59,1.06,5.17a10.47,10.47,0,0,0,1.67.07,3,3,0,0,0-.61,1.31,3,3,0,1,0,5.92,1.15"/></clipPath><linearGradient id="Gradiente_sem_nome_10-3" x1="24.9" y1="44.23" x2="32.09" y2="54.88" xlink:href="#Gradiente_sem_nome_10"/><clipPath id="clip-path-4"><path class="cls-1" d="M24.34,40.57S19,44.51,11.62,38.46c-3.7-3-5.62,2.07-1.64,5a11,11,0,0,0,1.4.89,3,3,0,0,0-1.17.83,3,3,0,1,0,4.76.27c3.43.34,6.91-1.29,9.37-4.9"/></clipPath><linearGradient id="Gradiente_sem_nome_10-4" x1="7.33" y1="41.06" x2="23.26" y2="44.98" xlink:href="#Gradiente_sem_nome_10"/><clipPath id="clip-path-5"><path class="cls-1" d="M46.79,31c0,4.79,5.14,3.09,4.94-1.86a9.92,9.92,0,0,0-.19-1.65,3,3,0,0,0,1.39.4A3,3,0,1,0,50.15,24c-1.88-2.88-5.33-4.57-9.69-4.23,0,0,6.39,1.67,6.33,11.23"/></clipPath><linearGradient id="Gradiente_sem_nome_10-5" x1="56.29" y1="26.65" x2="41.52" y2="28.45" xlink:href="#Gradiente_sem_nome_10"/><clipPath id="clip-path-6"><path class="cls-1" d="M43.34,32S46.28,37.87,39,44.11c-3.63,3.11,1,5.9,4.65,2.5a11.55,11.55,0,0,0,1.12-1.22,2.93,2.93,0,0,0,.61,1.3,3,3,0,1,0,1.11-4.64c.94-3.32,0-7-3.17-10.09"/></clipPath><linearGradient id="Gradiente_sem_nome_10-6" x1="47.65" y1="38.45" x2="36.6" y2="44.83" xlink:href="#Gradiente_sem_nome_10"/><clipPath id="clip-path-7"><path class="cls-1" d="M23.46,2.91a3,3,0,0,0,2.14,3c-2.88,1.88-4.58,5.33-4.23,9.69,0,0,1.66-6.39,11.23-6.33,4.78,0,3.09-5.13-1.86-4.94a11,11,0,0,0-1.65.19,3.07,3.07,0,0,0,.39-1.39,3,3,0,1,0-6-.21"/></clipPath><linearGradient id="Gradiente_sem_nome_10-7" x1="32.26" y1="11.05" x2="23.51" y2="1.65" xlink:href="#Gradiente_sem_nome_10"/><clipPath id="clip-path-8"><path class="cls-1" d="M32.47,14.61s5.58-3.54,12.53,3c3.47,3.28,5.76-1.65,2-4.89a11.27,11.27,0,0,0-1.34-1,3,3,0,1,0-3.5-1.36c-3.39-.59-7,.78-9.7,4.2"/></clipPath><linearGradient id="Gradiente_sem_nome_10-8" x1="49.34" y1="15.78" x2="33.74" y2="10.7" xlink:href="#Gradiente_sem_nome_10"/><clipPath id="clip-path-9"><path class="cls-1" d="M198.45,45.67a3.36,3.36,0,0,1-1.69.42,2.89,2.89,0,1,1,0-5.77,3,3,0,0,1,2.26.94l1-.94a4.36,4.36,0,1,0-3.32,7.11,5.19,5.19,0,0,0,3.21-1V43.11h-1.44ZM182.31,39.1v5.56l-4.52-5.56h-1.26v8.21H178V41.75l4.53,5.56h1.25V39.1ZM166,47.31h1.53V39.1H166Zm-9.64,0h1.78l-3.66-4.54,3.45-3.67h-1.71l-4.06,4.21V39.1H150.6v8.21h1.53v-2.1l1.3-1.34ZM140.55,42c0,1-.69,1.64-2,1.64h-1.78V40.39h1.78C139.86,40.39,140.55,41,140.55,42Zm1.67,5.29-1.88-2.7A2.62,2.62,0,0,0,142.08,42c0-1.82-1.33-2.92-3.49-2.92h-3.38v8.21h1.53V44.92h2.17l1.67,2.4Zm-19.86-1.22a2.89,2.89,0,1,1,2.88-2.88A2.8,2.8,0,0,1,122.36,46.09Zm0,1.34a4.23,4.23,0,1,0-4.42-4.22A4.2,4.2,0,0,0,122.36,47.43ZM109.09,39.1,107,45.37l-2.08-6.27h-1.4l-2.12,6.24-2-6.24H97.76l2.72,8.21h1.63l2.07-6.07,2,6.07h1.62l2.72-8.21ZM86,46.09a2.89,2.89,0,1,1,2.88-2.88A2.8,2.8,0,0,1,86,46.09Zm0,1.34a4.23,4.23,0,1,0-4.42-4.22A4.2,4.2,0,0,0,86,47.43Zm-15.2,0A4.16,4.16,0,0,0,74,46.05l-1-.93a2.88,2.88,0,0,1-2.19,1,2.89,2.89,0,1,1,0-5.77,2.9,2.9,0,0,1,2.19,1l1-.92a4.32,4.32,0,1,0-3.25,7.07Z"/></clipPath><linearGradient id="Gradiente_sem_nome_2" x1="66.36" y1="43.21" x2="200" y2="43.21" gradientUnits="userSpaceOnUse"><stop offset="0" stop-color="#1b204c"/><stop offset="1" stop-color="#009cc3"/></linearGradient><clipPath id="clip-path-10"><path class="cls-1" d="M148.66,20.49l2.56-6.36,2.55,6.36Zm8.32,8h5.85L154,8.63h-5.54L139.72,28.5h5.74L147,24.64h8.4ZM131.57,8.63V19.22L122.8,8.63h-4.63V28.5h5.51V17.91l8.77,10.59h4.63V8.63ZM101.36,20.49l2.55-6.36,2.56,6.36Zm8.31,8h5.85l-8.8-19.87h-5.53L92.41,28.5h5.74l1.56-3.86h8.4Zm-19.9,0L89.71,8.63H85.08L78.27,20.1l-7-11.47H66.66V28.5h5.19V18.25l5.09,8.29h2.49L84.54,18,84.6,28.5Z"/></clipPath><linearGradient id="Gradiente_sem_nome_2-2" x1="66.66" y1="18.56" x2="162.83" y2="18.56" xlink:href="#Gradiente_sem_nome_2"/></defs><g id="Camada_2" data-name="Camada 2"><g class="cls-2"><rect class="cls-3" x="-0.06" y="20.32" width="15.65" height="16.36"/></g><g class="cls-4"><rect class="cls-5" x="5.89" y="7.1" width="15.75" height="18.05"/></g><g class="cls-6"><rect class="cls-7" x="19.63" y="41.41" width="16.8" height="14.9"/></g><g class="cls-8"><rect class="cls-9" x="6" y="35.44" width="18.35" height="15.1"/></g><g class="cls-10"><rect class="cls-11" x="40.46" y="19.45" width="15.65" height="16.36"/></g><g class="cls-12"><rect class="cls-13" x="35.39" y="31.96" width="15.75" height="18.05"/></g><g class="cls-14"><rect class="cls-15" x="21.02" y="-0.06" width="16.36" height="15.65"/></g><g class="cls-16"><rect class="cls-17" x="32.47" y="5.59" width="18.29" height="15.35"/></g><g class="cls-18"><rect class="cls-19" x="66.36" y="38.98" width="133.64" height="8.44"/></g><g class="cls-20"><rect class="cls-21" x="66.66" y="8.63" width="96.17" height="19.87"/></g></g></svg>