<?xml version="1.0" encoding="utf-8"?>
<!-- Generator: Adobe Illustrator 24.1.2, SVG Export Plug-In . SVG Version: 6.00 Build 0)  -->
<svg version="1.1" id="phone" xmlns="http://www.w3.org/2000/svg" xmlns:xlink="http://www.w3.org/1999/xlink" x="0px" y="0px"
	 viewBox="0 0 50 50" style="enable-background:new 0 0 50 50;" xml:space="preserve">
<g>
	<path d="M0,13.8c0.1-0.6,0.1-1.2,0.2-1.7c0.3-1.4,0.9-2.7,1.9-3.7C3.5,7,4.8,5.5,6.2,4.3c2.2-1.9,4.6-1.9,6.7,0.1
		c2.3,2.1,4.4,4.3,6.5,6.6c1.6,1.7,1.6,4.3,0,6c-1.1,1.3-2.4,2.5-3.6,3.7c-0.2,0.2-0.3,0.4-0.1,0.7c1.2,2.5,2.9,4.5,4.8,6.5
		c1.9,2,4,3.8,6.3,5.3c0.7,0.4,1.4,0.8,2.1,1.2c0.8-0.8,1.6-1.6,2.4-2.4c0.5-0.5,1.1-1.1,1.6-1.5c1.7-1.4,4.3-1.4,5.9,0.1
		c2.3,2.2,4.6,4.5,6.8,6.8c1.6,1.7,1.7,4.4,0.1,6.1c-1.5,1.7-3,3.3-4.6,4.7c-1.7,1.5-3.8,1.9-6.1,1.8c-4.2-0.4-8-2.1-11.6-4.1
		c-4.5-2.5-8.5-5.6-11.9-9.4c-4.3-4.6-7.8-9.6-10-15.5c-0.8-2-1.3-4-1.4-6.2c0-0.1,0-0.2-0.1-0.3C0,14.2,0,14,0,13.8z M2.9,14.2
		C2.9,14.7,3,15.3,3,15.9c0,0.3,0.1,0.5,0.1,0.8c0.8,3.4,2.2,6.6,4.1,9.6c4.9,8,11.4,14.2,19.8,18.3c2.6,1.3,5.3,2.3,8.2,2.6
		c1.8,0.2,3.4-0.2,4.6-1.6c1.1-1.1,2.2-2.3,3.3-3.4c1.2-1.2,1.2-2.2,0-3.5c-0.8-0.8-1.6-1.6-2.4-2.5c-1.1-1.1-2.3-2.3-3.4-3.4
		c-0.9-0.9-1.9-0.9-2.8-0.1c-0.2,0.1-0.3,0.3-0.5,0.4c-1.1,1.1-2.2,2.2-3.4,3.3c-0.8,0.8-1.7,1-2.6,0.5c-1-0.5-1.9-1-2.8-1.6
		c-3-1.9-5.6-4.3-8-7c-1.6-1.9-3.1-3.9-4.2-6.1c-0.8-1.8-0.7-2.4,0.7-3.7c1.1-1.1,2.2-2.2,3.3-3.3c0.8-0.9,0.8-1.8,0-2.7
		c-0.1-0.1-0.2-0.2-0.3-0.3c-1.9-1.9-3.9-3.9-5.8-5.8c-0.2-0.2-0.4-0.4-0.7-0.5C9.6,5.5,8.8,5.7,7.9,6.6C6.8,7.6,5.8,8.7,4.7,9.8
		C3.4,11,2.8,12.4,2.9,14.2z"/>
	<path d="M28,0c1.1,0.3,2.3,0.5,3.4,0.9C35,2,38.3,3.8,41.1,6.3c3,2.7,5.4,5.8,7,9.5c0.9,2,1.5,4.1,1.8,6.2c0.1,0.8-0.3,1.4-1,1.6
		c-0.7,0.2-1.5-0.2-1.7-0.9c-0.3-1-0.5-2.1-0.8-3.2C45,14.9,42.3,11,38.6,7.9c-3.2-2.6-6.7-4.3-10.8-5c-1.1-0.2-1.6-0.7-1.6-1.5
		c0-0.7,0.5-1.1,1.1-1.4C27.6,0,27.8,0,28,0z"/>
	<path d="M25.9,10.5c0-0.9,0.8-1.6,1.7-1.4c5.9,1.2,10,4.5,12.3,10c0.4,1,0.7,2.1,0.9,3.2c0.2,0.8-0.3,1.6-1,1.8
		c-0.7,0.2-1.5-0.3-1.7-1.1c-0.3-1.1-0.5-2.2-1-3.2c-2-4.3-5.3-6.9-9.9-7.9C26.3,11.7,25.9,11.2,25.9,10.5z"/>
</g>
</svg>
