<?xml version="1.0" standalone="no"?>
<!DOCTYPE svg PUBLIC "-//W3C//DTD SVG 20010904//EN"
 "http://www.w3.org/TR/2001/REC-SVG-20010904/DTD/svg10.dtd">
<svg version="1.0" xmlns="http://www.w3.org/2000/svg"
 width="700.000000pt" height="700.000000pt" viewBox="0 0 700.000000 700.000000"
 preserveAspectRatio="xMidYMid meet">
<metadata>
Created by potrace 1.14, written by Peter Selinger 2001-2017
</metadata>
<g transform="translate(0.000000,700.000000) scale(0.100000,-0.100000)"
fill="#000000" stroke="none">
<path d="M3265 6949 c-123 -15 -238 -97 -293 -209 -24 -49 -27 -66 -27 -155 0
-90 3 -106 29 -160 36 -73 108 -145 175 -175 l49 -23 -72 -57 c-314 -250 -466
-620 -447 -1089 1 -32 5 -27 49 60 88 177 210 313 377 423 248 164 536 241
917 247 185 3 296 38 352 112 122 162 -41 404 -323 477 -80 20 -254 26 -345
10 -33 -5 -61 -8 -62 -7 -1 1 6 28 17 60 45 133 17 263 -80 369 -54 59 -133
103 -201 113 -24 4 -47 8 -50 9 -3 1 -32 -1 -65 -5z"/>
<path d="M5455 6209 c-149 -51 -249 -181 -258 -335 -3 -51 12 -136 32 -172 17
-31 15 -33 -36 -26 -318 40 -644 -62 -910 -285 -80 -67 -223 -211 -223 -225 0
-2 31 9 68 25 138 57 230 74 412 74 201 -1 350 -37 555 -135 159 -76 290 -169
510 -361 130 -114 249 -149 346 -101 86 42 130 138 124 272 -7 190 -114 357
-328 515 l-66 48 48 23 c61 28 125 85 157 139 107 183 41 417 -146 519 -58 32
-74 36 -160 41 -48 3 -81 -1 -125 -16z"/>
<path d="M2030 5843 c-58 -10 -224 -80 -240 -101 -3 -4 -21 -19 -41 -34 -44
-33 -112 -99 -161 -157 -21 -25 -38 -38 -38 -30 0 8 -13 41 -29 74 -111 230
-410 281 -594 101 -131 -127 -143 -355 -26 -493 92 -110 227 -156 367 -127 36
8 67 13 68 11 1 -1 -4 -29 -13 -62 -21 -84 -24 -314 -7 -412 48 -261 170 -494
374 -716 l39 -42 -15 45 c-38 110 -52 212 -49 355 3 149 5 159 36 275 75 276
213 486 511 775 122 118 161 162 183 208 68 142 7 274 -150 322 -46 14 -156
18 -215 8z"/>
<path d="M5050 4515 c0 -2 30 -17 68 -35 59 -28 158 -85 172 -100 3 -3 25 -21
50 -40 40 -31 103 -94 160 -160 116 -134 225 -377 270 -600 29 -147 30 -158
45 -465 7 -148 23 -201 80 -264 156 -173 437 -3 509 309 16 66 16 327 1 377
l-7 22 53 -21 c178 -68 379 14 465 188 26 53 29 69 29 159 0 87 -3 107 -26
155 -94 198 -338 273 -526 164 -55 -33 -119 -104 -147 -164 l-22 -48 -33 48
c-18 26 -62 78 -99 115 -177 180 -400 294 -663 340 -80 14 -379 30 -379 20z"/>
<path d="M838 4177 c-113 -56 -210 -199 -244 -357 -12 -57 -15 -107 -10 -210
3 -74 8 -146 12 -159 6 -21 5 -22 -15 -11 -74 39 -197 46 -286 15 -164 -56
-268 -230 -243 -405 31 -209 239 -352 443 -305 114 26 214 105 257 203 l21 46
21 -25 c11 -14 31 -39 44 -55 126 -164 350 -313 564 -379 95 -28 102 -30 175
-41 26 -3 57 -9 68 -11 39 -9 295 -11 301 -2 3 5 -1 9 -9 9 -8 0 -50 18 -93
40 -273 139 -476 400 -584 751 -29 98 -59 281 -65 406 -3 65 -8 155 -10 201
-2 45 -9 101 -16 124 -47 175 -179 241 -331 165z"/>
<path d="M1929 3852 c-13 -2 -15 -53 -15 -352 0 -234 4 -351 11 -353 5 -2 46
-3 90 -3 l80 1 3 174 c1 96 3 176 5 177 1 1 41 -61 88 -139 l85 -142 46 -3 45
-3 42 66 c22 36 41 67 41 69 0 13 100 168 101 156 0 -8 2 -91 2 -185 l2 -170
93 -1 92 -1 1 26 c1 14 1 40 1 56 0 17 -1 165 -1 330 l-1 300 -77 -1 c-43 -1
-81 -2 -85 -3 -4 0 -60 -89 -123 -196 -64 -107 -119 -197 -124 -199 -4 -3 -57
77 -117 176 -60 100 -116 191 -125 201 -12 16 -29 20 -80 21 -36 0 -72 0 -80
-2z"/>
<path d="M3151 3850 c-15 -11 -310 -694 -302 -699 7 -5 168 -6 192 -2 4 0 17
30 30 66 21 61 25 65 53 65 187 3 268 2 275 -6 4 -5 18 -35 31 -66 12 -32 25
-58 29 -59 3 -1 50 -2 103 -3 89 -1 97 1 92 17 -3 9 -73 169 -155 355 l-149
337 -96 0 c-53 0 -99 -2 -103 -5z m146 -313 l42 -102 -86 -3 c-47 -2 -87 -1
-89 1 -2 1 16 51 38 110 23 58 44 104 47 101 3 -3 25 -51 48 -107z"/>
<path d="M3765 3846 c-2 -6 -3 -166 -2 -356 l2 -344 98 -1 97 0 0 188 0 189
131 -158 c73 -88 143 -172 156 -189 24 -28 29 -29 109 -30 l84 -1 0 356 0 355
-99 0 -99 0 0 -165 c-1 -91 -1 -175 -1 -188 -1 -19 -15 -6 -73 65 -62 76 -205
249 -230 277 -11 14 -169 15 -173 2z"/>
<path d="M4850 3850 c-4 -3 -56 -115 -115 -250 -59 -135 -127 -290 -151 -344
-24 -54 -44 -102 -44 -105 0 -4 45 -6 100 -6 l100 0 27 68 c20 52 31 67 47 68
23 0 229 0 262 -1 15 0 27 -16 50 -68 l30 -67 100 0 c116 1 113 -7 53 121 -21
47 -39 87 -39 89 0 3 -13 33 -29 67 -15 35 -63 142 -106 238 -42 96 -81 179
-86 185 -10 10 -184 14 -199 5z m148 -317 l40 -103 -90 0 c-82 0 -90 2 -84 18
31 87 82 200 87 194 3 -4 24 -53 47 -109z"/>
<path d="M5390 3004 c0 -5 4 -14 8 -19 8 -10 30 -79 38 -120 2 -11 7 -31 10
-45 3 -14 7 -81 9 -150 5 -157 -19 -315 -65 -425 -4 -11 -18 -45 -30 -75 -41
-103 -149 -279 -223 -367 -56 -66 -128 -142 -197 -207 -200 -188 -240 -247
-242 -347 -1 -61 16 -101 64 -149 53 -54 109 -73 223 -76 87 -2 110 1 181 25
44 15 112 48 150 73 71 47 178 146 226 208 16 20 28 29 28 20 0 -29 59 -135
95 -172 227 -234 632 -77 637 247 4 251 -226 432 -467 368 -27 -7 -52 -13 -54
-13 -2 0 0 8 4 18 41 105 42 388 2 544 -48 183 -118 328 -235 484 -66 89 -162
194 -162 178z"/>
<path d="M1146 2316 c-92 -34 -140 -123 -139 -256 1 -141 63 -272 186 -392 61
-60 186 -150 226 -163 31 -9 26 -17 -30 -50 -194 -114 -232 -391 -78 -559 142
-155 379 -164 532 -21 114 107 145 310 68 441 l-19 31 117 1 c305 2 583 121
820 351 72 69 211 232 211 246 0 1 -28 -12 -62 -30 -155 -82 -323 -117 -528
-111 -74 3 -142 7 -150 9 -8 2 -33 7 -55 11 -221 43 -470 165 -717 352 -105
80 -178 126 -218 138 -52 15 -126 16 -164 2z"/>
<path d="M4514 1810 c-17 -37 -87 -127 -147 -189 -186 -192 -460 -316 -767
-348 -118 -12 -463 -4 -489 11 -12 8 -106 17 -171 17 -176 1 -275 -79 -274
-221 2 -187 203 -369 459 -415 67 -13 87 -14 170 -16 l81 -2 -36 -71 c-33 -65
-35 -76 -34 -160 1 -75 5 -101 26 -147 109 -240 418 -299 603 -114 162 162
140 428 -46 562 l-50 36 57 29 c261 134 464 382 565 691 16 49 31 100 34 115
21 100 36 197 33 220 l-3 27 -11 -25z"/>
</g>
</svg>
